<svg width="144" height="144" viewBox="0 0 144 144" xmlns="http://www.w3.org/2000/svg">
  <rect x="0" y="0" width="144" height="144" rx="22" fill="#FF6B6B"/>
  
  <g transform="translate(72, 63)">
    <g transform="translate(0, -5) scale(0.68)">
      <path d="M0,-35 C-20,-35 -35,-20 -35,5 C-35,30 -15,45 0,55 C15,45 35,30 35,5 C35,-20 20,-35 0,-35" 
            fill="white" stroke="none"/>
      <path d="M0,15 C-8,15 -12,5 -12,-5 C-12,-15 -5,-25 0,-35 C5,-25 12,-15 12,-5 C12,5 8,15 0,15" 
            fill="#FF6B6B"/>
      <path d="M0,-38 Q10,-55 25,-45 Q15,-35 0,-38" fill="white"/>
    </g>
    
    <g transform="translate(0, 50)">
      <!-- Text & Badge Group -->
      <!-- Shifted left slightly to center the whole composition -->
      <g transform="translate(-8, 0)">
        <text x="0" y="0" font-family="Arial, sans-serif" font-weight="bold" font-size="16" fill="white" text-anchor="middle" letter-spacing="0.5">SnapCal</text>
        
        <!-- Badge Style -->
        <g transform="translate(42, -9)">
           <rect x="0" y="0" width="18" height="12" rx="4" fill="white"/>
           <text x="9" y="9" font-family="Arial, sans-serif" font-weight="900" font-size="8" fill="#FF6B6B" text-anchor="middle">AI</text>
        </g>
      </g>
    </g>
  </g>
</svg>
